HIERARCHY
ROOT hip
{
  OFFSET 0 0 0
  CHANNELS 6 Xposition Yposition Zposition Zrotation Yrotation Xrotation
  JOINT abdomen
  {
    OFFSET 0 20.6881 -0.73152
    CHANNELS 3 Zrotation Xrotation Yrotation
    JOINT chest
    {
      OFFSET 0 11.7043 -0.48768
      CHANNELS 3 Zrotation Xrotation Yrotation
      JOINT neck
      {
        OFFSET 0 22.1894 -2.19456
        CHANNELS 3 Zrotation Xrotation Yrotation
        JOINT head
        {
          OFFSET -0.24384 7.07133 1.2192
          CHANNELS 3 Zrotation Xrotation Yrotation
          JOINT leftEye
          {
            OFFSET 4.14528 8.04674 8.04672
            CHANNELS 3 Zrotation Xrotation Yrotation
            End Site
            {
              OFFSET 1 0 0
            }
          }
          JOINT rightEye
          {
            OFFSET -3.6576 8.04674 8.04672
            CHANNELS 3 Zrotation Xrotation Yrotation
            End Site
            {
              OFFSET 1 0 0
            }
          }
        }
      }
      JOINT rCollar
      {
        OFFSET -2.68224 19.2634 -4.8768
        CHANNELS 3 Zrotation Xrotation Yrotation
        JOINT rShldr
        {
          OFFSET -8.77824 -1.95073 1.46304
          CHANNELS 3 Zrotation Xrotation Yrotation
          JOINT rForeArm
          {
            OFFSET -28.1742 -1.7115 0.48768
            CHANNELS 3 Zrotation Xrotation Yrotation
            JOINT rHand
            {
              OFFSET -22.5879 0.773209 7.07136
              CHANNELS 3 Zrotation Xrotation Yrotation
              JOINT rThumb1
              {
                OFFSET -1.2192 -0.487915 3.41376
                CHANNELS 3 Zrotation Xrotation Yrotation
                JOINT rThumb2
                {
                  OFFSET -3.37035 -0.52449 3.41376
                  CHANNELS 3 Zrotation Xrotation Yrotation
                  End Site
                  {
                    OFFSET -1.78271 -1.18214 1.43049
                  }
                }
              }
              JOINT rIndex1
              {
                OFFSET -7.75947 0.938293 5.60832
                CHANNELS 3 Zrotation Xrotation Yrotation
                JOINT rIndex2
                {
                  OFFSET -2.54057 -0.884171 1.56538
                  CHANNELS 3 Zrotation Xrotation Yrotation
                  End Site
                  {
                    OFFSET -1.62519 -0.234802 1.16502
                  }
                }
              }
              JOINT rMid1
              {
                OFFSET -8.24714 1.18213 3.41376
                CHANNELS 3 Zrotation Xrotation Yrotation
                JOINT rMid2
                {
                  OFFSET -3.10165 -0.590103 1.0647
                  CHANNELS 3 Zrotation Xrotation Yrotation
                  End Site
                  {
                    OFFSET -2.48547 -0.328903 0.83742
                  }
                }
              }
              JOINT rRing1
              {
                OFFSET -8.82822 0.546677 1.51678
                CHANNELS 3 Zrotation Xrotation Yrotation
                JOINT rRing2
                {
                  OFFSET -2.60934 -0.819778 -0.0198488
                  CHANNELS 3 Zrotation Xrotation Yrotation
                  End Site
                  {
                    OFFSET -2.33842 -0.294052 0.168128
                  }
                }
              }
              JOINT rPinky1
              {
                OFFSET -8.27202 -0.0477905 -0.4584
                CHANNELS 3 Zrotation Xrotation Yrotation
                JOINT rPinky2
                {
                  OFFSET -1.82734 -0.647385 -0.700984
                  CHANNELS 3 Zrotation Xrotation Yrotation
                  End Site
                  {
                    OFFSET -1.69225 -0.51767 -0.607171
                  }
                }
              }
            }
          }
        }
      }
      JOINT lCollar
      {
        OFFSET 2.68224 19.2634 -4.8768
        CHANNELS 3 Zrotation Xrotation Yrotation
        JOINT lShldr
        {
          OFFSET 8.77824 -1.95073 1.46304
          CHANNELS 3 Zrotation Xrotation Yrotation
          JOINT lForeArm
          {
            OFFSET 28.1742 -1.7115 0.48768
            CHANNELS 3 Zrotation Xrotation Yrotation
            JOINT lHand
            {
              OFFSET 22.5879 0.773209 7.07136
              CHANNELS 3 Zrotation Xrotation Yrotation
              JOINT lThumb1
              {
                OFFSET 1.2192 -0.487915 3.41376
                CHANNELS 3 Zrotation Xrotation Yrotation
                JOINT lThumb2
                {
                  OFFSET 3.37035 -0.52449 3.41376
                  CHANNELS 3 Zrotation Xrotation Yrotation
                  End Site
                  {
                    OFFSET 1.78271 -1.18214 1.43049
                  }
                }
              }
              JOINT lIndex1
              {
                OFFSET 7.75947 0.938293 5.60832
                CHANNELS 3 Zrotation Xrotation Yrotation
                JOINT lIndex2
                {
                  OFFSET 2.54057 -0.884171 1.56538
                  CHANNELS 3 Zrotation Xrotation Yrotation
                  End Site
                  {
                    OFFSET 1.62519 -0.234802 1.16502
                  }
                }
              }
              JOINT lMid1
              {
                OFFSET 8.24714 1.18213 3.41376
                CHANNELS 3 Zrotation Xrotation Yrotation
                JOINT lMid2
                {
                  OFFSET 3.10165 -0.590103 1.0647
                  CHANNELS 3 Zrotation Xrotation Yrotation
                  End Site
                  {
                    OFFSET 2.48547 -0.328903 0.83742
                  }
                }
              }
              JOINT lRing1
              {
                OFFSET 8.82822 0.546677 1.51678
                CHANNELS 3 Zrotation Xrotation Yrotation
                JOINT lRing2
                {
                  OFFSET 2.60934 -0.819778 -0.0198488
                  CHANNELS 3 Zrotation Xrotation Yrotation
                  End Site
                  {
                    OFFSET 2.33842 -0.294052 0.168128
                  }
                }
              }
              JOINT lPinky1
              {
                OFFSET 8.27202 -0.0477905 -0.4584
                CHANNELS 3 Zrotation Xrotation Yrotation
                JOINT lPinky2
                {
                  OFFSET 1.82734 -0.647385 -0.700984
                  CHANNELS 3 Zrotation Xrotation Yrotation
                  End Site
                  {
                    OFFSET 1.69225 -0.51767 -0.607171
                  }
                }
              }
            }
          }
        }
      }
    }
  }
  JOINT rButtock
  {
    OFFSET -8.77824 4.35084 1.2192
    CHANNELS 3 Zrotation Xrotation Yrotation
    JOINT rThigh
    {
      OFFSET 0 -1.70687 -2.19456
      CHANNELS 3 Zrotation Xrotation Yrotation
      JOINT rShin
      {
        OFFSET 0 -36.8199 0.73152
        CHANNELS 3 Zrotation Xrotation Yrotation
        JOINT rFoot
        {
          OFFSET 0.73152 -45.1104 -5.12064
          CHANNELS 3 Zrotation Xrotation Yrotation
          End Site
          {
            OFFSET -1.1221 -3.69964 12.103
          }
        }
      }
    }
  }
  JOINT lButtock
  {
    OFFSET 8.77824 4.35084 1.2192
    CHANNELS 3 Zrotation Xrotation Yrotation
    JOINT lThigh
    {
      OFFSET 0 -1.70687 -2.19456
      CHANNELS 3 Zrotation Xrotation Yrotation
      JOINT lShin
      {
        OFFSET 0 -36.8199 0.73152
        CHANNELS 3 Zrotation Xrotation Yrotation
        JOINT lFoot
        {
          OFFSET -0.73152 -45.1104 -5.12064
          CHANNELS 3 Zrotation Xrotation Yrotation
          End Site
          {
            OFFSET 1.1221 -3.69964 12.103
          }
        }
      }
    }
  }
}
MOTION
Frames:	4
Frame Time:	0.03333
-0.3095690927032778 27.707666405964716 -0.06440045296166184 -162.10499572753906 66.95689392089844 -155.55599975585938 2.1437203884124756 18.84040069580078 -6.4718098640441895 8.861749649047852 -11.326400756835938 -0.8170770406723022 -9.630928039550781 24.78230094909668 -20.07179832458496 24.921897888183594 -29.20690155029297 -34.022499084472656 -0.0 0.0 -0.0 -0.0 0.0 -0.0 6.997219915028802e-14 -2.7352767403496236e-13 -2.7352767403496236e-13 49.1547966003418 37.69099807739258 0.23506802320480347 -27.60430145263672 -42.134395599365234 87.8396987915039 -0.016287704929709435 3.6403701305389404 0.5123170018196106 1.95434890493118e-09 -1.2689586048608703e-09 -2.4887807370532755e-09 3.370821621828668e-09 -2.1853525655757267e-09 -4.3080707889942005e-09 1.95434890493118e-09 -1.2689586048608703e-09 -2.488799832889299e-09 7.7309088706970215 5.474880218505859 0.41731396317481995 1.95434890493118e-09 -1.2689586048608703e-09 -2.4887902849712873e-09 2.9055399894714355 0.9651829600334167 0.10290198773145676 1.954361783518266e-09 -1.2689586048608703e-09 -2.4887902849712873e-09 10.27859878540039 0.73180091381073 0.025912299752235413 1.95434890493118e-09 -1.2689586048608703e-09 -2.4887807370532755e-09 2.2216696739196777 -0.7334870100021362 -0.2089199721813202 6.997219915028802e-14 -2.7352767403496236e-13 -2.7352767403496236e-13 -64.25089263916016 51.36470031738281 -7.660109519958496 27.62710189819336 -42.05019760131836 -87.68119812011719 1.887850046157837 -35.85860061645508 5.830160140991211 3.884462085324003e-09 -1.3417805755366885e-09 4.808890174956559e-09 6.57867182951577e-09 -2.318719660721058e-09 8.40001934676593e-09 3.884462085324003e-09 -1.3417805755366885e-09 4.808899944919176e-09 -7.7309088706970215 5.474880218505859 -0.41731396317481995 3.884462085324003e-09 -1.3417805755366885e-09 4.8088808490831525e-09 -2.9055399894714355 0.9651829600334167 -0.10290198773145676 3.884462085324003e-09 -1.3417805755366885e-09 4.8088808490831525e-09 -10.27859878540039 0.73180091381073 -0.025912299752235413 3.884468302572941e-09 -1.3417805755366885e-09 4.8088808490831525e-09 -2.2216696739196777 -0.7334870100021362 0.2089199721813202 -0.0 0.0 -0.0 -36.079498291015625 -49.45970153808594 -23.50119972229004 -4.289749622344971 80.85960388183594 6.637469291687012 -3.4499199390411377 -23.259597778320312 -11.261999130249023 -0.0 0.0 -0.0 65.45899963378906 -58.64339828491211 54.2007942199707 164.26998901367188 86.62918853759766 -166.56199645996094 2.6247494220733643 -23.43939781188965 9.115728378295898
-0.6645737510238177 28.104438925039926 -0.1577352747844704 -160.21299743652344 68.3759994506836 -153.114990234375 2.0778698921203613 19.116701126098633 -6.130650043487549 8.778059005737305 -11.531000137329102 -0.7014169692993164 -9.656429290771484 24.54789924621582 -19.830198287963867 25.242403030395508 -29.38890266418457 -33.46289825439453 -0.0 0.0 -0.0 -0.0 0.0 -0.0 1.4630550731423858e-13 1.0114163196198178e-12 -1.4630550731423858e-13 49.35009765625 37.73419952392578 0.6097879409790039 -27.63149642944336 -42.033695220947266 87.65019226074219 -0.01596270315349102 3.604480266571045 0.5072530508041382 6.646659334030858e-10 -3.94859478447529e-10 -1.4415195703776362e-09 1.1473723082744414e-09 -6.779733441319991e-10 -2.497978934812295e-09 6.646595496206942e-10 -3.94853122420713e-10 -1.4415195703776362e-09 7.7309088706970215 5.474880218505859 0.41731396317481995 6.646659334030858e-10 -3.94859478447529e-10 -1.4415195703776362e-09 2.9055399894714355 0.9651829600334167 0.10290198773145676 6.646722616743261e-10 -3.94859478447529e-10 -1.4415195703776362e-09 10.27859878540039 0.73180091381073 0.025912299752235413 6.646659334030858e-10 -3.94859478447529e-10 -1.4415195703776362e-09 2.2216696739196777 -0.7334870100021362 -0.2089199721813202 1.4630550731423858e-13 1.0114163196198178e-12 -1.4630550731423858e-13 -62.91659927368164 51.27659225463867 -9.212489128112793 27.682497024536133 -41.83830261230469 -87.28469848632812 1.902499794960022 -35.974403381347656 5.855109691619873 1.4138710202615812e-09 -6.203480507060988e-10 1.2633702972664196e-09 2.4120181407738528e-09 -1.0735516919879728e-09 2.2142097044763887e-09 1.4138710202615812e-09 -6.203480507060988e-10 1.2633798451844314e-09 -7.7309088706970215 5.474880218505859 -0.41731396317481995 1.4138710202615812e-09 -6.203480507060988e-10 1.2633607493484078e-09 -2.9055399894714355 0.9651829600334167 -0.10290198773145676 1.413858252696798e-09 -6.203480507060988e-10 1.2633702972664196e-09 -10.27859878540039 0.73180091381073 -0.025912299752235413 1.4138773485328215e-09 -6.203417224348584e-10 1.2633607493484078e-09 -2.2216696739196777 -0.7334870100021362 0.2089199721813202 -0.0 0.0 -0.0 -36.1393928527832 -50.548099517822266 -24.22739601135254 -3.704479694366455 79.36060333251953 5.805059909820557 -1.9759902954101562 -22.819698333740234 -8.151220321655273 -0.0 0.0 -0.0 64.92529296875 -58.09609603881836 54.10869598388672 158.58299255371094 87.56698608398438 -160.93699645996094 2.9983906745910645 -22.836301803588867 10.025500297546387
-1.0740666970153838 28.566472194087318 -0.2664826652633573 -157.67599487304688 70.26300811767578 -149.8199920654297 1.7623199224472046 19.307802200317383 -5.553319931030273 8.778130531311035 -11.768399238586426 -0.5218680500984192 -9.703789710998535 24.313400268554688 -19.598899841308594 25.55839729309082 -29.636598587036133 -32.91719436645508 -0.0 0.0 -0.0 -0.0 0.0 -0.0 2.7988879660115207e-13 3.3014155645383347e-12 -1.0495829872543203e-13 49.35929489135742 37.86759948730469 1.084399938583374 -27.657798767089844 -41.93419647216797 87.46359252929688 -0.01573450304567814 3.5788300037384033 0.503633975982666 -2.3399976400995115e-10 1.538243421528307e-10 -4.2233946895287033e-10 -4.0133507628326015e-10 2.680825839096457e-10 -7.347335517771114e-10 -2.339870242007436e-10 1.538243421528307e-10 -4.223458249796863e-10 7.7309088706970215 5.474880218505859 0.41731396317481995 -2.3399976400995115e-10 1.538243421528307e-10 -4.2233946895287033e-10 2.9055399894714355 0.9651829600334167 0.10290198773145676 -2.339806681739276e-10 1.538243421528307e-10 -4.2234266084406613e-10 10.27859878540039 0.73180091381073 0.025912299752235413 -2.3399976400995115e-10 1.538243421528307e-10 -4.2233630481725015e-10 2.2216696739196777 -0.7334870100021362 -0.2089199721813202 2.7988879660115207e-13 3.3014155645383347e-12 -1.0495829872543203e-13 -61.73729705810547 51.12629699707031 -10.71820068359375 27.741901397705078 -41.60369873046875 -86.84599304199219 1.9289400577545166 -36.18259811401367 5.900099754333496 3.0151655911608843e-12 -1.8346710262129307e-10 -6.952596831588664e-10 3.14429628167634e-11 -3.1762925623013416e-10 -1.2060408227654307e-09 3.008804577014912e-12 -1.8346710262129307e-10 -6.952532993764748e-10 -7.7309088706970215 5.474880218505859 -0.41731396317481995 3.0151655911608843e-12 -1.8346710262129307e-10 -6.952628472944866e-10 -2.9055399894714355 0.9651829600334167 -0.10290198773145676 3.002443346028505e-12 -1.8346710262129307e-10 -6.952596831588664e-10 -10.27859878540039 0.73180091381073 -0.025912299752235413 3.0215268221472913e-12 -1.8346710262129307e-10 -6.952628472944866e-10 -2.2216696739196777 -0.7334870100021362 0.2089199721813202 -0.0 0.0 -0.0 -37.05509948730469 -51.73460006713867 -26.181499481201172 -3.1966300010681152 77.64289855957031 4.987820148468018 0.24172593653202057 -22.028501510620117 -3.2675299644470215 -0.0 0.0 -0.0 64.32518768310547 -57.35410690307617 54.24469757080078 142.3369903564453 88.591796875 -144.75099182128906 3.412449598312378 -22.165498733520508 11.078398704528809
-1.4904351355410668 29.06769708859224 -0.40788864527929986 -154.55599975585938 72.40849304199219 -145.7919921875 1.197489857673645 19.411399841308594 -4.739799499511719 8.8631010055542 -12.038500785827637 -0.2781969904899597 -9.77316951751709 24.07900047302246 -19.377798080444336 25.872098922729492 -29.951099395751953 -32.38509750366211 -0.0 0.0 -0.0 -0.0 0.0 -0.0 4.834442850383536e-13 6.6028311290766695e-12 -1.4630550731423858e-13 49.17849349975586 38.09000015258789 1.6611998081207275 -27.683399200439453 -41.83599853515625 87.27969360351562 -0.015599102713167667 3.563420057296753 0.501459002494812 -7.416416925032365e-10 3.7710562450499197e-10 5.687467719006634e-10 -1.2752878753019559e-09 6.528151907936319e-10 9.816654156225013e-10 -7.416035563423407e-10 3.7709291245136e-10 5.687276760646398e-10 7.7309088706970215 5.474880218505859 0.41731396317481995 -7.416416925032365e-10 3.7710562450499197e-10 5.687531001719037e-10 2.9055399894714355 0.9651829600334167 0.10290198773145676 -7.415907887775575e-10 3.770865286689684e-10 5.687340598470314e-10 10.27859878540039 0.73180091381073 0.025912299752235413 -7.416416925032365e-10 3.7710562450499197e-10 5.687594839542953e-10 2.2216696739196777 -0.7334870100021362 -0.2089199721813202 4.834442850383536e-13 6.6028311290766695e-12 -1.4630550731423858e-13 -60.71929931640625 50.91590118408203 -12.172500610351562 27.80369758605957 -41.34510040283203 -86.36709594726562 1.9677197933197021 -36.48299789428711 5.965528964996338 -3.4810532234530456e-10 -3.115034966083563e-11 -1.0670124783729307e-09 -5.630599320127772e-10 -5.09461223208163e-11 -1.860719800461652e-09 -3.4811167837212054e-10 -3.115034966083563e-11 -1.0669869432433643e-09 -7.7309088706970215 5.474880218505859 -0.41731396317481995 -3.4810532234530456e-10 -3.11439901645727e-11 -1.0669997108081475e-09 -2.9055399894714355 0.9651829600334167 -0.10290198773145676 -3.4811806215451213e-10 -3.115034966083563e-11 -1.0669997108081475e-09 -10.27859878540039 0.73180091381073 -0.025912299752235413 -3.4810532234530456e-10 -3.115034966083563e-11 -1.0669997108081475e-09 -2.2216696739196777 -0.7334870100021362 0.2089199721813202 -0.0 0.0 -0.0 -38.9723014831543 -52.93550109863281 -29.473600387573242 -2.7990996837615967 75.70579528808594 4.217669486999512 3.0176899433135986 -20.731998443603516 3.3209099769592285 -0.0 0.0 -0.0 63.643890380859375 -56.41830062866211 54.597999572753906 76.06749725341797 89.14521026611328 -78.5396957397461 3.8581900596618652 -21.426000595092773 12.271599769592285
